<svg width="12" height="12" viewBox="0 0 12 12" fill="none" xmlns="http://www.w3.org/2000/svg">
<path d="M11.2334 6.73167C10.8202 6.84136 10.3945 6.89688 9.96703 6.89684C8.66533 6.89684 7.44288 6.39097 6.52468 5.4731C5.92172 4.86688 5.48823 4.11328 5.26743 3.28739C5.04663 2.46151 5.04623 1.5922 5.26626 0.766119C5.29374 0.662833 5.29357 0.554139 5.26576 0.450941C5.23794 0.347744 5.18348 0.253671 5.10781 0.178159C5.03215 0.102648 4.93796 0.0483531 4.83468 0.0207215C4.73139 -0.00691017 4.62266 -0.00690711 4.51938 0.0207304C3.48482 0.296325 2.54095 0.839028 1.78245 1.5944C-0.59415 3.97013 -0.59415 7.83726 1.78245 10.2142C2.34735 10.7821 3.0193 11.2323 3.75942 11.5388C4.49953 11.8453 5.29311 12.0021 6.09423 12C6.89514 12.0022 7.68853 11.8456 8.42845 11.5392C9.16838 11.2327 9.84013 10.7826 10.4048 10.2148C11.161 9.45645 11.7042 8.51243 11.9796 7.47767C12.007 7.37442 12.0068 7.26581 11.979 7.16268C11.9512 7.05955 11.8968 6.96553 11.8212 6.89001C11.7457 6.81448 11.6516 6.76011 11.5485 6.73232C11.4453 6.70454 11.3366 6.70431 11.2334 6.73167ZM9.54329 9.35302C9.09149 9.80714 8.55407 10.1672 7.96215 10.4123C7.37022 10.6574 6.73554 10.7827 6.09484 10.781C5.45392 10.7826 4.81905 10.6572 4.22693 10.412C3.63481 10.1667 3.09719 9.80662 2.64517 9.35241C0.744136 7.45146 0.744136 4.35776 2.64517 2.4568C3.01252 2.09 3.43662 1.7848 3.90115 1.55295C3.83315 2.43002 3.95538 3.31143 4.25948 4.13694C4.56359 4.96245 5.04239 5.7126 5.66317 6.33612C6.28555 6.95862 7.03575 7.43858 7.86191 7.7428C8.68806 8.04702 9.57046 8.16825 10.4481 8.09811C10.2149 8.56169 9.90948 8.98527 9.54329 9.35302Z" fill="#D86211"/>
</svg>
